<?xml version="1.0" encoding="utf-8"?>
<!-- Generator: Adobe Illustrator 21.1.0, SVG Export Plug-In . SVG Version: 6.00 Build 0)  -->
<svg version="1.1" xmlns="http://www.w3.org/2000/svg" xmlns:xlink="http://www.w3.org/1999/xlink" x="0px" y="0px"
	 viewBox="0 0 540.5 84.6" style="enable-background:new 0 0 540.5 84.6;" xml:space="preserve">
<style type="text/css">
	.st0{fill:#16132E;}
	.st1{fill:#FFA12A;}
	.st2{fill:#C47A33;}
	.st3{fill:#E34C54;}
	.st4{fill:#EB42D1;}
	.st5{fill:#3EECAC;}
	.st6{fill:#08AEEA;}
	.st7{fill:#FFFFFF;}
	.st8{display:none;fill:#74E843;}
	.st9{fill:url(#SVGID_1_);}
	.st10{fill:none;stroke:#FFA12A;stroke-width:3;stroke-miterlimit:10;}
	.st11{fill:url(#SVGID_2_);}
	.st12{fill:url(#SVGID_3_);}
	.st13{fill:none;stroke:#FFA12A;stroke-width:2;stroke-miterlimit:10;}
	.st14{fill:url(#SVGID_4_);}
	.st15{fill:#FFA12A;stroke:#FFA12A;stroke-miterlimit:10;}
	.st16{fill:url(#SVGID_5_);}
	.st17{fill:url(#SVGID_6_);}
	.st18{fill:url(#SVGID_7_);}
	.st19{fill:url(#SVGID_8_);}
	.st20{fill:url(#SVGID_9_);}
	.st21{fill:#1D1D1B;}
	.st22{fill:url(#SVGID_10_);}
	.st23{fill:url(#SVGID_11_);}
	.st24{fill:url(#SVGID_12_);}
	.st25{fill:url(#SVGID_13_);}
	.st26{fill:url(#SVGID_14_);}
	.st27{fill:url(#SVGID_15_);}
</style>
<g id="Layer_2">
	<rect x="-5294.9" y="168.6" class="st0" width="841.9" height="314.8"/>
	<rect x="-4433" y="168.6" class="st0" width="841.9" height="314.8"/>
	<rect x="-3571.1" y="168.6" class="st0" width="841.9" height="314.8"/>
	<rect x="-2709.2" y="168.6" class="st0" width="841.9" height="314.8"/>
	<rect x="-1847.3" y="168.6" class="st0" width="841.9" height="314.8"/>
	<circle class="st0" cx="-5378.7" cy="270.2" r="24.1"/>
	<circle class="st1" cx="-5378.7" cy="332.9" r="24.1"/>
	<circle class="st2" cx="-5442.7" cy="332.9" r="24.1"/>
	<circle class="st3" cx="-5378.7" cy="394.6" r="24.1"/>
	<circle class="st4" cx="-5378.7" cy="456.3" r="24.1"/>
	<circle class="st5" cx="-5442.7" cy="455.3" r="24.1"/>
	<circle class="st6" cx="-5442.7" cy="518.5" r="24.1"/>
	<rect x="738.4" y="168.6" class="st5" width="841.9" height="595.3"/>
</g>
<g id="Layer_1">
	<g>
		<text transform="matrix(1 0 0 1 -5075.498 368.4412)" class="st7" style="font-family:'Roboto-Bold'; font-size:110.2688px;">chain</text>
		<text transform="matrix(1 0 0 1 -5202.2046 368.4422)" class="st3" style="font-family:'Roboto-Bold'; font-size:110.2688px;">on</text>
	</g>
	
		<rect x="-5541.9" y="470.6" transform="matrix(-1.836970e-16 1 -1 -1.836970e-16 -5055.8447 6015.2095)" class="st8" width="12.8" height="18.2"/>
	<linearGradient id="SVGID_1_" gradientUnits="userSpaceOnUse" x1="-4798.5996" y1="339.2171" x2="-4657.2568" y2="339.2171">
		<stop  offset="0" style="stop-color:#E34C54"/>
		<stop  offset="0.2321" style="stop-color:#E85B4D"/>
		<stop  offset="0.6737" style="stop-color:#F4813A"/>
		<stop  offset="1" style="stop-color:#FFA12A"/>
	</linearGradient>
	<path class="st9" d="M-4686.5,368.4h-82.9c-16.1,0-29.2-13.1-29.2-29.2v0c0-16.1,13.1-29.2,29.2-29.2h82.9
		c16.1,0,29.2,13.1,29.2,29.2v0C-4657.3,355.3-4670.4,368.4-4686.5,368.4z"/>
	<text transform="matrix(1 0 0 1 -4770.6172 352.66)" class="st0" style="font-family:'Roboto-Bold'; font-size:46px;">jobs</text>
	<g>
		<text transform="matrix(1 0 0 1 -5075.498 648.0948)" style="font-family:'Roboto-Bold'; font-size:110.2688px;">chain</text>
		<text transform="matrix(1 0 0 1 -5202.2046 648.0958)" class="st10" style="font-family:'Roboto-Bold'; font-size:110.2688px;">on</text>
	</g>
	<linearGradient id="SVGID_2_" gradientUnits="userSpaceOnUse" x1="-4798.5996" y1="618.8707" x2="-4657.2568" y2="618.8707">
		<stop  offset="0" style="stop-color:#FFA12A"/>
		<stop  offset="0.2065" style="stop-color:#FB9530"/>
		<stop  offset="0.575" style="stop-color:#F1773F"/>
		<stop  offset="1" style="stop-color:#E34C54"/>
	</linearGradient>
	<path class="st11" d="M-4686.5,648.1h-82.9c-16.1,0-29.2-13.1-29.2-29.2v0c0-16.1,13.1-29.2,29.2-29.2h82.9
		c16.1,0,29.2,13.1,29.2,29.2v0C-4657.3,634.9-4670.4,648.1-4686.5,648.1z"/>
	<text transform="matrix(1 0 0 1 -4770.6172 632.3135)" class="st7" style="font-family:'Roboto-Bold'; font-size:46px;">jobs</text>
	<linearGradient id="SVGID_3_" gradientUnits="userSpaceOnUse" x1="-3937.8342" y1="618.8707" x2="-3796.4915" y2="618.8707">
		<stop  offset="0" style="stop-color:#FFA12A"/>
		<stop  offset="0.2065" style="stop-color:#FB9530"/>
		<stop  offset="0.575" style="stop-color:#F1773F"/>
		<stop  offset="1" style="stop-color:#E34C54"/>
	</linearGradient>
	<path class="st12" d="M-3825.7,648.1h-82.9c-16.1,0-29.2-13.1-29.2-29.2v0c0-16.1,13.1-29.2,29.2-29.2h82.9
		c16.1,0,29.2,13.1,29.2,29.2v0C-3796.5,634.9-3809.6,648.1-3825.7,648.1z"/>
	<text transform="matrix(1 0 0 1 -3909.8518 632.3135)" class="st7" style="font-family:'Roboto-Bold'; font-size:46px;">jobs</text>
	<g>
		<text transform="matrix(1 0 0 1 -4213.6079 368.4412)" class="st7" style="font-family:'Roboto-Bold'; font-size:110.2688px;">chain</text>
		<text transform="matrix(1 0 0 1 -4340.3145 368.4422)" class="st13" style="font-family:'Roboto-Bold'; font-size:110.2688px;">on</text>
	</g>
	<linearGradient id="SVGID_4_" gradientUnits="userSpaceOnUse" x1="-3936.7095" y1="339.2171" x2="-3795.3667" y2="339.2171">
		<stop  offset="0" style="stop-color:#FFA12A"/>
		<stop  offset="0.1861" style="stop-color:#FC992E"/>
		<stop  offset="0.4726" style="stop-color:#F58439"/>
		<stop  offset="0.8219" style="stop-color:#EA614A"/>
		<stop  offset="1" style="stop-color:#E34C54"/>
	</linearGradient>
	<path class="st14" d="M-3824.6,368.4h-82.9c-16.1,0-29.2-13.1-29.2-29.2v0c0-16.1,13.1-29.2,29.2-29.2h82.9
		c16.1,0,29.2,13.1,29.2,29.2v0C-3795.4,355.3-3808.5,368.4-3824.6,368.4z"/>
	<text transform="matrix(1 0 0 1 -3908.7271 352.66)" class="st0" style="font-family:'Roboto-Bold'; font-size:46px;">jobs</text>
	<g>
		<text transform="matrix(1 0 0 1 -4213.6079 648.0948)" style="font-family:'Roboto-Bold'; font-size:110.2688px;">chain</text>
		<g>
			<text transform="matrix(1 0 0 1 -4337.958 647.5009)" class="st15" style="font-family:'Roboto-Bold'; font-size:110.2688px;">on</text>
			<g>
				<path class="st1" d="M-4284.1,626.4c-3.9,0-7-3.1-7-7s3.1-7,7-7h16.6c3.9,0,7,3.1,7,7s-3.1,7-7,7H-4284.1z"/>
				<path class="st7" d="M-4267.6,614.4c2.8,0,5,2.2,5,5s-2.2,5-5,5h-16.6c-2.8,0-5-2.2-5-5s2.2-5,5-5H-4267.6 M-4267.6,610.4h-16.6
					c-5,0-9,4-9,9s4,9,9,9h16.6c5,0,9-4,9-9S-4262.6,610.4-4267.6,610.4L-4267.6,610.4z"/>
			</g>
		</g>
	</g>
	<g>
		<path class="st1" d="M-2962.1,648.1h-84.7c-16.1,0-29.2-13.1-29.2-29.2v-0.7c0-16.1,13.1-29.2,29.2-29.2h84.7
			c16.1,0,29.2,13.1,29.2,29.2v0.7C-2932.9,634.9-2946,648.1-2962.1,648.1z"/>
		<text transform="matrix(1 0 0 1 -3047.6177 632.1201)" class="st7" style="font-family:'Roboto-Bold'; font-size:46.5649px;">jobs</text>
	</g>
	<linearGradient id="SVGID_5_" gradientUnits="userSpaceOnUse" x1="-3074.8196" y1="339.2171" x2="-2933.4768" y2="339.2171">
		<stop  offset="0" style="stop-color:#FFA12A"/>
		<stop  offset="9.072179e-02" style="stop-color:#FC992E"/>
		<stop  offset="0.2304" style="stop-color:#F58439"/>
		<stop  offset="0.4006" style="stop-color:#EA614A"/>
		<stop  offset="0.4874" style="stop-color:#E34C54"/>
		<stop  offset="0.9904" style="stop-color:#662483"/>
	</linearGradient>
	<path class="st16" d="M-2962.7,368.4h-82.9c-16.1,0-29.2-13.1-29.2-29.2v0c0-16.1,13.1-29.2,29.2-29.2h82.9
		c16.1,0,29.2,13.1,29.2,29.2v0C-2933.5,355.3-2946.6,368.4-2962.7,368.4z"/>
	<text transform="matrix(1 0 0 1 -3046.8372 352.66)" class="st0" style="font-family:'Roboto-Bold'; font-size:46px;">jobs</text>
	<g>
		<text transform="matrix(1 0 0 1 -3351.7183 648.0948)" style="font-family:'Roboto-Bold'; font-size:110.2688px;">chain</text>
		<g>
			<g>
				<g>
					<linearGradient id="SVGID_6_" gradientUnits="userSpaceOnUse" x1="-3472.5151" y1="618.3725" x2="-3357.7769" y2="618.3725">
						<stop  offset="9.602062e-03" style="stop-color:#662483"/>
						<stop  offset="0.5126" style="stop-color:#E34C54"/>
						<stop  offset="0.5994" style="stop-color:#EA614A"/>
						<stop  offset="0.7696" style="stop-color:#F58439"/>
						<stop  offset="0.9093" style="stop-color:#FC992E"/>
						<stop  offset="1" style="stop-color:#FFA12A"/>
					</linearGradient>
					<path class="st17" d="M-3472.5,617.8c0-5.8,1.1-10.9,3.3-15.5c2.2-4.5,5.4-8,9.6-10.5s9-3.7,14.6-3.7c7.9,0,14.3,2.4,19.2,7.2
						c5,4.8,7.7,11.3,8.3,19.6l0.1,4c0,8.9-2.5,16.1-7.5,21.5c-5,5.4-11.7,8.1-20.1,8.1c-8.4,0-15.1-2.7-20.1-8.1
						c-5-5.4-7.5-12.7-7.5-22V617.8z M-3457,618.9c0,5.5,1,9.8,3.1,12.7c2.1,2.9,5.1,4.4,8.9,4.4c3.8,0,6.7-1.4,8.8-4.3
						c2.1-2.9,3.2-7.5,3.2-13.9c0-5.4-1.1-9.6-3.2-12.6c-2.1-3-5.1-4.5-8.9-4.5c-3.8,0-6.7,1.5-8.8,4.4S-3457,612.7-3457,618.9z"/>
					<linearGradient id="SVGID_7_" gradientUnits="userSpaceOnUse" x1="-3472.5151" y1="618.3725" x2="-3357.7769" y2="618.3725">
						<stop  offset="9.602062e-03" style="stop-color:#662483"/>
						<stop  offset="0.5126" style="stop-color:#E34C54"/>
						<stop  offset="0.5994" style="stop-color:#EA614A"/>
						<stop  offset="0.7696" style="stop-color:#F58439"/>
						<stop  offset="0.9093" style="stop-color:#FC992E"/>
						<stop  offset="1" style="stop-color:#FFA12A"/>
					</linearGradient>
					<path class="st18" d="M-3393.4,589.2l0.5,6.7c4.2-5.2,9.7-7.8,16.7-7.8c6.2,0,10.8,1.8,13.8,5.4c3,3.6,4.6,9,4.6,16.3v37.6
						h-15.6v-37.3c0-3.3-0.7-5.7-2.2-7.2c-1.4-1.5-3.8-2.2-7.2-2.2c-4.4,0-7.7,1.9-9.9,5.6v41.2h-15.6v-58.3H-3393.4z"/>
				</g>
			</g>
			<g>
				<path class="st1" d="M-3422.2,626.4c-3.9,0-7-3.1-7-7s3.1-7,7-7h16.6c3.9,0,7,3.1,7,7s-3.1,7-7,7H-3422.2z"/>
				<path class="st7" d="M-3405.7,614.4c2.8,0,5,2.2,5,5s-2.2,5-5,5h-16.6c-2.8,0-5-2.2-5-5s2.2-5,5-5H-3405.7 M-3405.7,610.4h-16.6
					c-4.9,0-9,4-9,9s4.1,9,9,9h16.6c4.9,0,9-4,9-9S-3400.7,610.4-3405.7,610.4L-3405.7,610.4z"/>
			</g>
		</g>
	</g>
	<g>
		<g>
			<text transform="matrix(1 0 0 1 -3351.718 368.4412)" class="st7" style="font-family:'Roboto-Bold'; font-size:110.2688px;">chain</text>
			<text transform="matrix(1 0 0 1 -3478.4246 368.4422)" class="st1" style="font-family:'Roboto-Bold'; font-size:110.2688px;">on</text>
		</g>
		<g>
			<path class="st1" d="M-3424.2,346.5c-3.9,0-7-3.1-7-7s3.1-7,7-7h16.6c3.9,0,7,3.1,7,7s-3.1,7-7,7H-3424.2z"/>
			<path class="st0" d="M-3407.7,334.5c2.8,0,5,2.2,5,5s-2.2,5-5,5h-16.6c-2.8,0-5-2.2-5-5s2.2-5,5-5H-3407.7 M-3407.7,330.5h-16.6
				c-4.9,0-9,4-9,9l0,0c0,5,4.1,9,9,9h16.6c4.9,0,9-4,9-9l0,0C-3398.7,334.5-3402.7,330.5-3407.7,330.5L-3407.7,330.5z"/>
		</g>
	</g>
	<g>
		<linearGradient id="SVGID_8_" gradientUnits="userSpaceOnUse" x1="-2214.0542" y1="618.512" x2="-2070.9758" y2="618.512">
			<stop  offset="0" style="stop-color:#3EECAC"/>
			<stop  offset="0.2322" style="stop-color:#37E4B4"/>
			<stop  offset="0.5885" style="stop-color:#25CFC9"/>
			<stop  offset="0.6807" style="stop-color:#1FC8D0"/>
			<stop  offset="1" style="stop-color:#08AEEA"/>
		</linearGradient>
		<path class="st19" d="M-2100.2,648.1h-84.7c-16.1,0-29.2-13.1-29.2-29.2v-0.7c0-16.1,13.1-29.2,29.2-29.2h84.7
			c16.1,0,29.2,13.1,29.2,29.2v0.7C-2071,634.9-2084.1,648.1-2100.2,648.1z"/>
		<text transform="matrix(1 0 0 1 -2185.7275 632.1201)" class="st7" style="font-family:'Roboto-Bold'; font-size:46.5649px;">jobs</text>
	</g>
	<linearGradient id="SVGID_9_" gradientUnits="userSpaceOnUse" x1="-2212.9294" y1="339.2171" x2="-2071.5867" y2="339.2171">
		<stop  offset="0" style="stop-color:#3EECAC"/>
		<stop  offset="0.2322" style="stop-color:#37E4B4"/>
		<stop  offset="0.5885" style="stop-color:#25CFC9"/>
		<stop  offset="0.6807" style="stop-color:#1FC8D0"/>
		<stop  offset="1" style="stop-color:#08AEEA"/>
	</linearGradient>
	<path class="st20" d="M-2100.8,368.4h-82.9c-16.1,0-29.2-13.1-29.2-29.2v0c0-16.1,13.1-29.2,29.2-29.2h82.9
		c16.1,0,29.2,13.1,29.2,29.2v0C-2071.6,355.3-2084.7,368.4-2100.8,368.4z"/>
	<text transform="matrix(1 0 0 1 -2184.9473 352.66)" class="st0" style="font-family:'Roboto-Bold'; font-size:46px;">jobs</text>
	<g>
		<text transform="matrix(1 0 0 1 -2489.8284 648.0948)" class="st0" style="font-family:'Roboto-Bold'; font-size:110.2688px;">chain</text>
		<g>
			<g>
				<text transform="matrix(1 0 0 1 -2614.1785 647.5009)" class="st5" style="font-family:'Roboto-Bold'; font-size:110.2688px;">on</text>
			</g>
			<g>
				<path class="st5" d="M-2498.3,626.4c-3.9,0-7-3.1-7-7s3.1-7,7-7h16.6c3.9,0,7,3.1,7,7s-3.1,7-7,7H-2498.3z"/>
				<path class="st7" d="M-2481.8,614.4c2.8,0,5,2.2,5,5s-2.2,5-5,5h-16.6c-2.8,0-5-2.2-5-5s2.2-5,5-5H-2481.8 M-2481.8,610.4h-16.6
					c-4.9,0-9,4-9,9s4.1,9,9,9h16.6c4.9,0,9-4,9-9S-2476.8,610.4-2481.8,610.4L-2481.8,610.4z"/>
			</g>
		</g>
	</g>
	<g>
		<g>
			<text transform="matrix(1 0 0 1 -2489.8281 368.4412)" class="st7" style="font-family:'Roboto-Bold'; font-size:110.2688px;">chain</text>
			<text transform="matrix(1 0 0 1 -2616.5347 368.4422)" class="st5" style="font-family:'Roboto-Bold'; font-size:110.2688px;">on</text>
		</g>
		<g>
			<path class="st5" d="M-2500.3,346.5c-3.9,0-7-3.1-7-7s3.1-7,7-7h16.6c3.9,0,7,3.1,7,7s-3.1,7-7,7H-2500.3z"/>
			<path class="st0" d="M-2483.8,334.5c2.8,0,5,2.2,5,5s-2.2,5-5,5h-16.6c-2.8,0-5-2.2-5-5s2.2-5,5-5H-2483.8 M-2483.8,330.5h-16.6
				c-4.9,0-9,4-9,9l0,0c0,5,4.1,9,9,9h16.6c4.9,0,9-4,9-9l0,0C-2474.8,334.5-2478.8,330.5-2483.8,330.5L-2483.8,330.5z"/>
		</g>
	</g>
	<g>
		<g>
			<ellipse class="st5" cx="-1726.4" cy="579.5" rx="14.1" ry="20"/>
		</g>
		<g>
			<text transform="matrix(1 0 0 1 -1757.6157 608.6567)" class="st5" style="font-family:'Roboto-Bold'; font-size:110.2688px;">o</text>
		</g>
		<g>
			<text transform="matrix(1 0 0 1 -1730.2656 609.2506)" class="st21" style="font-family:'Roboto-Bold'; font-size:110.2688px;">c</text>
		</g>
		<g>
			<path class="st5" d="M-1682.5,586.6c-3,0-5.5-2.5-5.5-5.5c0-3,2.5-5.5,5.5-5.5h14.4c3,0,5.5,2.5,5.5,5.5c0,3-2.5,5.5-5.5,5.5
				H-1682.5z"/>
			<path class="st7" d="M-1668.1,577.1c2.2,0,4,1.8,4,4c0,2.2-1.8,4-4,4h-14.4c-2.2,0-4-1.8-4-4c0-2.2,1.8-4,4-4H-1668.1
				 M-1668.1,574.1h-14.4c-3.8,0-7,3.1-7,7c0,3.8,3.1,7,7,7h14.4c3.8,0,7-3.1,7-7C-1661.2,577.2-1664.3,574.1-1668.1,574.1
				L-1668.1,574.1z"/>
		</g>
	</g>
	<g>
		<g>
			<ellipse class="st5" cx="-1729.3" cy="661.9" rx="14.1" ry="20"/>
		</g>
		<g>
			<text transform="matrix(1 0 0 1 -1760.4971 691.0872)" class="st5" style="font-family:'Roboto-Bold'; font-size:110.2688px;">o</text>
		</g>
		<g>
			<text transform="matrix(1 0 0 1 -1733.147 691.681)" class="st0" style="font-family:'Roboto-Bold'; font-size:110.2688px;">c</text>
		</g>
		<g>
			<path class="st5" d="M-1685.4,669c-3,0-5.5-2.5-5.5-5.5s2.5-5.5,5.5-5.5h14.4c3,0,5.5,2.5,5.5,5.5s-2.5,5.5-5.5,5.5H-1685.4z"/>
			<path class="st7" d="M-1671,659.5c2.2,0,4,1.8,4,4s-1.8,4-4,4h-14.4c-2.2,0-4-1.8-4-4s1.8-4,4-4H-1671 M-1671,656.5h-14.4
				c-3.8,0-7,3.1-7,7l0,0c0,3.8,3.1,7,7,7h14.4c3.8,0,7-3.1,7-7l0,0C-1664,659.7-1667.2,656.5-1671,656.5L-1671,656.5z"/>
		</g>
	</g>
	<g>
		<g>
			<ellipse class="st5" cx="-592.6" cy="278.9" rx="23.4" ry="33.1"/>
		</g>
		<g>
			<text transform="matrix(1 0 0 1 -644.2616 327.0712)" class="st5" style="font-family:'Roboto-Bold'; font-size:182.4024px;">o</text>
		</g>
		<g>
			<text transform="matrix(1 0 0 1 -599.0194 328.0536)" class="st0" style="font-family:'Roboto-Bold'; font-size:182.4024px;">c</text>
		</g>
	</g>
	<g>
		<g>
			<g>
				<ellipse class="st5" cx="-1729.3" cy="322.7" rx="14.1" ry="20"/>
			</g>
			<g>
				<text transform="matrix(1 0 0 1 -1760.4971 351.8755)" class="st5" style="font-family:'Roboto-Bold'; font-size:110.2688px;">o</text>
			</g>
			<g>
				<text transform="matrix(1 0 0 1 -1733.147 352.4693)" class="st7" style="font-family:'Roboto-Bold'; font-size:110.2688px;">c</text>
			</g>
			<g>
				<path class="st5" d="M-1685.4,329.8c-3,0-5.5-2.5-5.5-5.5s2.5-5.5,5.5-5.5h14.4c3,0,5.5,2.5,5.5,5.5s-2.5,5.5-5.5,5.5H-1685.4z"
					/>
				<path class="st0" d="M-1671,320.3c2.2,0,4,1.8,4,4c0,2.2-1.8,4-4,4h-14.4c-2.2,0-4-1.8-4-4c0-2.2,1.8-4,4-4H-1671 M-1671,317.3
					h-14.4c-3.8,0-7,3.1-7,7v0c0,3.8,3.1,7,7,7h14.4c3.8,0,7-3.1,7-7v0C-1664,320.5-1667.2,317.3-1671,317.3L-1671,317.3z"/>
			</g>
		</g>
	</g>
	<g>
		<g>
			<ellipse class="st5" cx="-1587.7" cy="661.9" rx="14.1" ry="20"/>
		</g>
		<g>
			<text transform="matrix(1 0 0 1 -1618.8911 691.0872)" class="st5" style="font-family:'Roboto-Bold'; font-size:110.2688px;">o</text>
		</g>
		<g>
			<g>
				<linearGradient id="SVGID_10_" gradientUnits="userSpaceOnUse" x1="-1587.9878" y1="662.5522" x2="-1536.9448" y2="662.5522">
					<stop  offset="0" style="stop-color:#16132E"/>
					<stop  offset="0.1068" style="stop-color:#192237"/>
					<stop  offset="0.3114" style="stop-color:#20484D"/>
					<stop  offset="0.5925" style="stop-color:#2B8671"/>
					<stop  offset="0.9362" style="stop-color:#3BDBA2"/>
					<stop  offset="1" style="stop-color:#3EECAC"/>
				</linearGradient>
				<path class="st22" d="M-1561.3,680.2c2.9,0,5.2-0.8,7-2.4c1.8-1.6,2.7-3.7,2.8-6.3h14.6c0,3.9-1.1,7.6-3.2,10.8
					c-2.1,3.3-5,5.8-8.7,7.6c-3.7,1.8-7.7,2.7-12.2,2.7c-8.3,0-14.9-2.6-19.7-7.9c-4.8-5.3-7.2-12.6-7.2-21.9v-1
					c0-9,2.4-16.1,7.2-21.5c4.8-5.3,11.3-8,19.7-8c7.3,0,13.1,2.1,17.5,6.2c4.4,4.1,6.6,9.7,6.7,16.6h-14.6c-0.1-3-1-5.5-2.8-7.4
					c-1.8-1.9-4.2-2.8-7.1-2.8c-3.6,0-6.4,1.3-8.2,4c-1.8,2.6-2.8,6.9-2.8,12.9v1.6c0,6,0.9,10.3,2.7,12.9
					S-1565.1,680.2-1561.3,680.2z"/>
			</g>
		</g>
		<g>
			<path class="st5" d="M-1543.8,669c-3,0-5.5-2.5-5.5-5.5s2.5-5.5,5.5-5.5h14.4c3,0,5.5,2.5,5.5,5.5s-2.5,5.5-5.5,5.5H-1543.8z"/>
			<path class="st7" d="M-1529.4,659.5c2.2,0,4,1.8,4,4s-1.8,4-4,4h-14.4c-2.2,0-4-1.8-4-4s1.8-4,4-4H-1529.4 M-1529.4,656.5h-14.4
				c-3.8,0-7,3.1-7,7l0,0c0,3.8,3.1,7,7,7h14.4c3.8,0,7-3.1,7-7l0,0C-1522.4,659.7-1525.6,656.5-1529.4,656.5L-1529.4,656.5z"/>
		</g>
	</g>
	<g>
		<g>
			<ellipse class="st5" cx="-1587.7" cy="578.9" rx="14.1" ry="20"/>
		</g>
		<g>
			<text transform="matrix(1 0 0 1 -1618.8916 608.0629)" class="st5" style="font-family:'Roboto-Bold'; font-size:110.2688px;">o</text>
		</g>
		<g>
			<g>
				<linearGradient id="SVGID_11_" gradientUnits="userSpaceOnUse" x1="-1587.9878" y1="579.5287" x2="-1536.9448" y2="579.5287">
					<stop  offset="0" style="stop-color:#08AEEA"/>
					<stop  offset="0.5" style="stop-color:#1FC8D0"/>
					<stop  offset="0.5677" style="stop-color:#25CFC9"/>
					<stop  offset="0.8295" style="stop-color:#37E4B4"/>
					<stop  offset="1" style="stop-color:#3EECAC"/>
				</linearGradient>
				<path class="st23" d="M-1561.3,597.2c2.9,0,5.2-0.8,7-2.4c1.8-1.6,2.7-3.7,2.8-6.3h14.6c0,3.9-1.1,7.6-3.2,10.8
					c-2.1,3.3-5,5.8-8.7,7.6c-3.7,1.8-7.7,2.7-12.2,2.7c-8.3,0-14.9-2.6-19.7-7.9c-4.8-5.3-7.2-12.6-7.2-21.9v-1
					c0-9,2.4-16.1,7.2-21.5c4.8-5.3,11.3-8,19.7-8c7.3,0,13.1,2.1,17.5,6.2c4.4,4.1,6.6,9.7,6.7,16.6h-14.6c-0.1-3-1-5.5-2.8-7.4
					c-1.8-1.9-4.2-2.8-7.1-2.8c-3.6,0-6.4,1.3-8.2,4c-1.8,2.6-2.8,6.9-2.8,12.9v1.6c0,6,0.9,10.3,2.7,12.9
					C-1567.9,595.9-1565.1,597.2-1561.3,597.2z"/>
			</g>
		</g>
		<g>
			<path class="st5" d="M-1543.8,586c-3,0-5.5-2.5-5.5-5.5s2.5-5.5,5.5-5.5h14.4c3,0,5.5,2.5,5.5,5.5s-2.5,5.5-5.5,5.5H-1543.8z"/>
			<path class="st7" d="M-1529.4,576.5c2.2,0,4,1.8,4,4c0,2.2-1.8,4-4,4h-14.4c-2.2,0-4-1.8-4-4c0-2.2,1.8-4,4-4H-1529.4
				 M-1529.4,573.5h-14.4c-3.8,0-7,3.1-7,7v0c0,3.8,3.1,7,7,7h14.4c3.8,0,7-3.1,7-7v0C-1522.4,576.6-1525.6,573.5-1529.4,573.5
				L-1529.4,573.5z"/>
		</g>
	</g>
	<g>
		<ellipse class="st5" cx="-2583" cy="620.6" rx="16.6" ry="21.1"/>
	</g>
	<g>
		<g>
			<path class="st5" d="M-322.1,459.8h-84.7c-16.1,0-29.2-13.1-29.2-29.2v-0.7c0-16.1,13.1-29.2,29.2-29.2l84.7,0
				c16.1,0,29.2,13.1,29.2,29.2v0.7C-292.9,446.6-306,459.8-322.1,459.8z"/>
			<text transform="matrix(1 0 0 1 -407.6286 443.8175)" class="st7" style="font-family:'Roboto-Bold'; font-size:46.5649px;">jobs</text>
		</g>
		<g>
			<text transform="matrix(1 0 0 1 -711.7295 459.7922)" class="st0" style="font-family:'Roboto-Bold'; font-size:110.2688px;">chain</text>
			<g>
				<g>
					<text transform="matrix(1 0 0 1 -836.0796 459.1984)" class="st5" style="font-family:'Roboto-Bold'; font-size:110.2688px;">on</text>
				</g>
				<g>
					<path class="st5" d="M-720.2,438.1c-3.9,0-7-3.1-7-7c0-3.9,3.1-7,7-7h16.6c3.9,0,7,3.1,7,7c0,3.9-3.1,7-7,7H-720.2z"/>
					<path class="st7" d="M-703.7,426.1c2.8,0,5,2.2,5,5s-2.2,5-5,5h-16.6c-2.8,0-5-2.2-5-5s2.2-5,5-5H-703.7 M-703.7,422.1h-16.6
						c-5,0-9,4-9,9s4,9,9,9h16.6c5,0,9-4,9-9S-698.7,422.1-703.7,422.1L-703.7,422.1z"/>
				</g>
			</g>
		</g>
		<g>
			<ellipse class="st5" cx="-804.9" cy="432.3" rx="16.6" ry="21.1"/>
		</g>
	</g>
	<g>
		<g>
			<ellipse class="st5" cx="-375.7" cy="278.9" rx="23.4" ry="33.1"/>
		</g>
		<g>
			<text transform="matrix(1 0 0 1 -427.3174 327.0713)" class="st5" style="font-family:'Roboto-Bold'; font-size:182.4024px;">o</text>
		</g>
		<g>
			<text transform="matrix(1 0 0 1 -382.0753 328.0537)" class="st0" style="font-family:'Roboto-Bold'; font-size:182.4024px;">c</text>
		</g>
	</g>
	<g>
		<g>
			<ellipse class="st5" cx="-13.5" cy="628.3" rx="23.4" ry="33.1"/>
		</g>
		<g>
			<text transform="matrix(1 0 0 1 -65.0929 676.5554)" class="st5" style="font-family:'Roboto-Bold'; font-size:182.4024px;">o</text>
		</g>
		<g>
			<text transform="matrix(1 0 0 1 -19.8507 677.5378)" class="st0" style="font-family:'Roboto-Bold'; font-size:182.4024px;">c</text>
		</g>
		<g>
			<linearGradient id="SVGID_12_" gradientUnits="userSpaceOnUse" x1="50.024" y1="630.9453" x2="91.9742" y2="630.9453">
				<stop  offset="0" style="stop-color:#3EECAC"/>
				<stop  offset="0.2322" style="stop-color:#37E4B4"/>
				<stop  offset="0.5885" style="stop-color:#25CFC9"/>
				<stop  offset="0.6807" style="stop-color:#1FC8D0"/>
				<stop  offset="1" style="stop-color:#08AEEA"/>
			</linearGradient>
			<path class="st24" d="M59.1,640c-5,0-9.1-4.1-9.1-9.1s4.1-9.1,9.1-9.1h23.8c5,0,9.1,4.1,9.1,9.1s-4.1,9.1-9.1,9.1H59.1z"/>
			<path class="st7" d="M82.9,624.4c3.6,0,6.6,2.9,6.6,6.6s-2.9,6.6-6.6,6.6H59.1c-3.6,0-6.6-2.9-6.6-6.6s2.9-6.6,6.6-6.6H82.9
				 M82.9,619.4H59.1c-6.4,0-11.6,5.2-11.6,11.6c0,6.4,5.2,11.6,11.6,11.6h23.8c6.4,0,11.6-5.2,11.6-11.6
				C94.5,624.6,89.3,619.4,82.9,619.4L82.9,619.4z"/>
		</g>
	</g>
	<g>
		<g>
			<linearGradient id="SVGID_13_" gradientUnits="userSpaceOnUse" x1="425.9347" y1="430.2094" x2="569.0131" y2="430.2094">
				<stop  offset="0" style="stop-color:#3EECAC"/>
				<stop  offset="0.2322" style="stop-color:#37E4B4"/>
				<stop  offset="0.5885" style="stop-color:#25CFC9"/>
				<stop  offset="0.6807" style="stop-color:#1FC8D0"/>
				<stop  offset="1" style="stop-color:#08AEEA"/>
			</linearGradient>
			<path class="st25" d="M539.8,459.8h-84.7c-16.1,0-29.2-13.1-29.2-29.2v-0.7c0-16.1,13.1-29.2,29.2-29.2l84.7,0
				c16.1,0,29.2,13.1,29.2,29.2v0.7C569,446.6,555.9,459.8,539.8,459.8z"/>
			<g>
				<path class="st7" d="M457.1,419.2v26c0,2.1-1,3.2-3,3.2c-0.6,0-1.3-0.1-2.1-0.2v5.2c1,0.3,2.1,0.4,3.3,0.4
					c2.7,0,4.8-0.8,6.2-2.3c1.4-1.5,2.2-3.6,2.2-6.3v-25.9H457.1z M463,410.4c-0.7-0.6-1.6-1-2.7-1c-1.1,0-2,0.3-2.7,1
					c-0.7,0.6-1,1.5-1,2.4c0,1,0.3,1.8,1,2.5c0.7,0.6,1.6,1,2.7,1c1.1,0,2-0.3,2.7-1c0.7-0.6,1-1.5,1-2.5
					C464,411.9,463.7,411.1,463,410.4z"/>
				<path class="st7" d="M491.1,430.1c-0.2-3.5-1.4-6.2-3.5-8.3c-2.1-2-4.8-3-8.1-3c-2.3,0-4.4,0.5-6.2,1.6c-1.8,1-3.1,2.5-4.1,4.4
					c-0.9,1.9-1.4,4.1-1.4,6.5v0.3c0,3.9,1.1,7,3.2,9.3c2.1,2.3,5,3.4,8.5,3.4c3.5,0,6.4-1.2,8.5-3.4c2.1-2.3,3.2-5.3,3.2-9.1
					L491.1,430.1z M483.2,437.1c-0.9,1.2-2.1,1.8-3.7,1.8c-1.6,0-2.9-0.6-3.8-1.9c-0.9-1.2-1.3-3-1.3-5.4c0-2.6,0.4-4.6,1.3-5.8
					c0.9-1.2,2.1-1.9,3.7-1.9c1.6,0,2.9,0.6,3.8,1.9c0.9,1.3,1.4,3,1.4,5.3C484.6,434,484.1,435.9,483.2,437.1z"/>
				<path class="st7" d="M514.8,422.1c-1.7-2.2-4-3.3-7.1-3.3c-2.5,0-4.5,0.9-6,2.7v-12.5h-6.6v34.9h5.9l0.3-2.6
					c1.6,2,3.7,3.1,6.4,3.1c3,0,5.4-1.1,7.1-3.3c1.7-2.2,2.5-5.3,2.5-9.2v-0.4C517.4,427.4,516.5,424.3,514.8,422.1z M510.3,435.8
					c-0.7,2.1-2.1,3.1-4.2,3.1c-2.1,0-3.6-0.9-4.4-2.6v-9.7c0.8-1.7,2.2-2.6,4.3-2.6c1.6,0,2.7,0.6,3.5,1.7c0.8,1.1,1.2,3,1.2,5.5
					C510.8,433.3,510.6,434.8,510.3,435.8z"/>
				<path class="st7" d="M535.9,430.1c-1.1-0.4-2.5-0.8-4.1-1.1c-1.6-0.3-2.8-0.7-3.5-1.2s-1-1-1-1.8c0-0.8,0.3-1.4,0.9-1.9
					s1.5-0.8,2.6-0.8c1.3,0,2.2,0.3,2.8,0.9c0.6,0.6,0.9,1.4,0.9,2.3h6.6c0-2.4-0.9-4.3-2.8-5.7c-1.9-1.5-4.4-2.2-7.5-2.2
					c-2.9,0-5.3,0.7-7.1,2.2c-1.8,1.5-2.7,3.3-2.7,5.5c0,3.7,2.9,6.2,8.8,7.5c1.8,0.4,3,0.8,3.8,1.2c0.8,0.5,1.2,1.1,1.2,1.9
					c0,0.8-0.3,1.4-1,1.9c-0.6,0.5-1.6,0.7-2.9,0.7c-1.4,0-2.4-0.3-3.2-0.9c-0.8-0.6-1.2-1.5-1.3-2.7h-6.2c0,1.5,0.5,2.9,1.4,4.2
					c0.9,1.3,2.2,2.3,3.8,3c1.6,0.7,3.4,1.1,5.5,1.1c3,0,5.5-0.7,7.4-2.1c1.9-1.4,2.9-3.2,2.9-5.4
					C541.1,433.6,539.4,431.4,535.9,430.1z"/>
			</g>
		</g>
		<g>
			<g>
				<path class="st0" d="M187.4,446c-1.8,1.6-4.1,2.4-7,2.4c-3.7,0-6.5-1.3-8.3-3.9c-1.8-2.6-2.7-6.9-2.7-12.9v-1.6
					c0-5.9,0.9-10.2,2.8-12.9c1.9-2.6,4.6-4,8.2-4c2.9,0,5.3,0.9,7.1,2.8c1.8,1.9,2.7,4.4,2.8,7.4h14.6c-0.1-6.9-2.3-12.4-6.7-16.6
					c-4.4-4.1-10.2-6.2-17.5-6.2c-8.3,0-14.9,2.7-19.6,8c-3.3,3.7-5.5,8.2-6.5,13.6h2.8c5,0,9,4,9,9c0,2.5-1,4.7-2.6,6.4
					c-1.6,1.6-3.9,2.6-6.4,2.6h-2.6c1.1,5.1,3.2,9.4,6.3,12.8c4.8,5.3,11.4,7.9,19.7,7.9c4.5,0,8.5-0.9,12.2-2.7
					c3.7-1.8,6.6-4.4,8.7-7.6c2.1-3.3,3.2-6.9,3.2-10.9h-14.6C190.1,442.3,189.2,444.4,187.4,446z M160.8,434.6
					c0.9-0.9,1.5-2.2,1.5-3.5c0-2.8-2.2-5-5-5h-3.4c-0.1,1.3-0.2,2.5-0.2,3.9v1c0,1.8,0.1,3.5,0.3,5.1h3.3
					C158.6,436.1,159.9,435.5,160.8,434.6z"/>
				<path class="st0" d="M244.4,400.5c-6.2,0-11.4,2.5-15.6,7.4v-30.8h-15.6v82.7h15.6v-41.5c2-3.5,5.4-5.3,9.9-5.3
					c3.3,0,5.7,0.8,7.2,2.4c1.4,1.6,2.1,4.1,2.1,7.4v37h15.6v-37.3C263.4,407.8,257,400.5,244.4,400.5z"/>
				<path class="st0" d="M322.5,446.3v-25.2c0-6.5-2.1-11.6-6.3-15.2c-4.2-3.6-9.9-5.4-17.1-5.4c-4.7,0-9,0.8-12.8,2.4
					c-3.8,1.6-6.8,3.9-8.8,6.8c-2.1,2.9-3.1,6-3.1,9.4h15.6c0-2.2,0.8-3.9,2.2-5.2c1.5-1.3,3.5-1.9,6.2-1.9c3,0,5.2,0.8,6.5,2.4
					c1.4,1.6,2.1,3.8,2.1,6.5v3.3h-7.2c-8.6,0-15.3,1.7-19.8,5c-4.6,3.3-6.9,8-6.9,14.2c0,5,1.9,9.2,5.6,12.5c3.8,3.3,8.5,5,14.2,5
					c6,0,10.9-2.1,14.7-6.3c0.3,2.1,0.9,3.8,1.6,5.2h15.7v-0.9C323.3,456,322.5,451.9,322.5,446.3z M306.9,443.3
					c-0.9,1.7-2.4,3.1-4.3,4.1s-4.1,1.5-6.4,1.5c-2.4,0-4.2-0.6-5.6-1.9c-1.4-1.3-2-2.9-2-4.8l0.1-0.9c0.5-5.4,4.6-8.1,12.4-8.1h5.8
					V443.3z"/>
				<path class="st0" d="M349.4,380.7c-1.6-1.5-3.7-2.3-6.4-2.3c-2.7,0-4.8,0.8-6.4,2.3s-2.3,3.4-2.3,5.8c0,2.4,0.8,4.3,2.4,5.8
					c1.6,1.5,3.7,2.3,6.3,2.3s4.7-0.8,6.3-2.3c1.6-1.5,2.4-3.5,2.4-5.8C351.8,384.1,351,382.2,349.4,380.7z M335.3,401.5v58.3h15.6
					v-58.3H335.3z"/>
				<path class="st0" d="M409,405.9c-3-3.6-7.6-5.4-13.8-5.4c-7,0-12.6,2.6-16.7,7.8l-0.5-6.7h-14.6v58.3h15.6v-41.2
					c2.2-3.7,5.5-5.6,9.8-5.6c3.3,0,5.7,0.7,7.2,2.2c1.4,1.5,2.2,3.9,2.2,7.2v37.3h15.6v-37.6C413.6,414.9,412,409.5,409,405.9z"/>
			</g>
			<g>
				<g>
					<g>
						<path class="st5" d="M84.6,430.7c0,8.9-2.5,16.1-7.5,21.5c-5,5.4-11.7,8.1-20.1,8.1s-15.1-2.7-20.1-8.1
							c-5-5.4-7.5-12.7-7.5-22v-0.7c0-5.8,1.1-10.9,3.3-15.5c2.2-4.5,5.4-8,9.6-10.5c4.2-2.5,9-3.7,14.6-3.7
							c7.9,0,14.3,2.4,19.3,7.2c5,4.8,7.7,11.3,8.3,19.6L84.6,430.7z"/>
					</g>
					<g>
						<path class="st5" d="M84.6,430.7c0,8.9-2.5,16.1-7.5,21.5c-5,5.4-11.7,8.1-20.1,8.1s-15.1-2.7-20.1-8.1
							c-5-5.4-7.5-12.7-7.5-22v-0.7c0-5.8,1.1-10.9,3.3-15.5c2.2-4.5,5.4-8,9.6-10.5c4.2-2.5,9-3.7,14.6-3.7
							c7.9,0,14.3,2.4,19.3,7.2c5,4.8,7.7,11.3,8.3,19.6L84.6,430.7z"/>
						<path class="st5" d="M140.6,422.1h3.5v-0.5c-0.1-7.2-1.6-12.6-4.6-16.3c-3-3.6-7.6-5.4-13.8-5.4c-7,0-12.6,2.6-16.7,7.8
							l-0.5-6.7H93.8v58.3h15.6V418c2.2-3.7,5.5-5.6,9.9-5.6c3.3,0,5.7,0.8,7.2,2.2c1.4,1.5,2.1,3.9,2.1,7.2v37.3h15.6v-19.1h-3.5
							c-5,0-9-4-9-9c0-2.5,1-4.7,2.6-6.4C135.9,423.1,138.2,422.1,140.6,422.1z M140.5,426.1c-1.4,0-2.6,0.6-3.5,1.5
							c-0.9,0.9-1.5,2.2-1.5,3.5c0,2.8,2.2,5,5,5h3.6v-10H140.5z"/>
					</g>
				</g>
				<g>
					<path class="st5" d="M140.5,434.1c-1.7,0-3-1.4-3-3c0-0.8,0.3-1.5,0.9-2.1c0.6-0.6,1.3-0.9,2.1-0.9h16.7c1.7,0,3,1.3,3,3
						c0,0.8-0.3,1.6-0.9,2.1c-0.6,0.6-1.3,0.9-2.1,0.9H140.5z"/>
					<path class="st7" d="M157.2,430.1c0.5,0,1,0.5,1,1c0,0.3-0.2,0.6-0.3,0.7c-0.1,0.1-0.4,0.3-0.7,0.3h-16.7c-0.5,0-1-0.5-1-1
						c0-0.3,0.1-0.5,0.3-0.7c0.2-0.2,0.4-0.3,0.7-0.3H157.2 M157.2,426.1h-16.7c-1.4,0-2.6,0.6-3.5,1.5c-0.9,0.9-1.5,2.2-1.5,3.5
						c0,2.8,2.2,5,5,5h16.7c1.4,0,2.6-0.6,3.5-1.5c0.9-0.9,1.5-2.2,1.5-3.5C162.2,428.3,160,426.1,157.2,426.1L157.2,426.1z"/>
				</g>
			</g>
		</g>
	</g>
	<text transform="matrix(1 0 0 1 62.4933 633.4683)" class="st7" style="font-family:'Roboto-Bold'; font-size:9px;">jobs</text>
	<g>
		<g>
			<ellipse class="st5" cx="-876.8" cy="641.5" rx="23.4" ry="33.1"/>
		</g>
		<g>
			<text transform="matrix(1 0 0 1 -928.4058 689.7558)" class="st5" style="font-family:'Roboto-Bold'; font-size:182.4024px;">o</text>
		</g>
		<g>
			<text transform="matrix(1 0 0 1 -883.1636 690.7382)" class="st0" style="font-family:'Roboto-Bold'; font-size:182.4024px;">c</text>
		</g>
		<g>
			<path class="st5" d="M-804.2,653.2c-5,0-9.1-4.1-9.1-9.1s4.1-9.1,9.1-9.1h23.8c5,0,9.1,4.1,9.1,9.1s-4.1,9.1-9.1,9.1H-804.2z"/>
			<path class="st7" d="M-780.4,637.6c3.6,0,6.6,2.9,6.6,6.6s-2.9,6.6-6.6,6.6h-23.8c-3.6,0-6.6-2.9-6.6-6.6s2.9-6.6,6.6-6.6H-780.4
				 M-780.4,632.6h-23.8c-6.4,0-11.6,5.2-11.6,11.6l0,0c0,6.4,5.2,11.6,11.6,11.6h23.8c6.4,0,11.6-5.2,11.6-11.6l0,0
				C-768.8,637.8-774,632.6-780.4,632.6L-780.4,632.6z"/>
		</g>
	</g>
	<text transform="matrix(1 0 0 1 -800.8196 646.6686)" class="st7" style="font-family:'Roboto-Bold'; font-size:9px;">jobs</text>
	<g>
		<path class="st5" d="M-508.3,288h-24.4c-3.6,0-6.6-3-6.6-6.6v0c0-3.6,3-6.6,6.6-6.6h24.4c3.6,0,6.6,3,6.6,6.6v0
			C-501.7,285-504.7,288-508.3,288z"/>
	</g>
	<g>
		<linearGradient id="SVGID_14_" gradientUnits="userSpaceOnUse" x1="-310.0406" y1="281.3991" x2="-272.4105" y2="281.3991">
			<stop  offset="0" style="stop-color:#3EECAC"/>
			<stop  offset="0.2322" style="stop-color:#37E4B4"/>
			<stop  offset="0.5885" style="stop-color:#25CFC9"/>
			<stop  offset="0.6807" style="stop-color:#1FC8D0"/>
			<stop  offset="1" style="stop-color:#08AEEA"/>
		</linearGradient>
		<path class="st26" d="M-279,288h-24.4c-3.6,0-6.6-3-6.6-6.6v0c0-3.6,3-6.6,6.6-6.6h24.4c3.6,0,6.6,3,6.6,6.6v0
			C-272.4,285-275.4,288-279,288z"/>
	</g>
	<g>
		<path class="st5" d="M162.2,431.1c0,1.4-0.6,2.6-1.5,3.5c-0.9,0.9-2.2,1.5-3.5,1.5h-16.7c-2.8,0-5-2.3-5-5c0-1.4,0.6-2.6,1.5-3.5
			c0.9-0.9,2.2-1.5,3.5-1.5h16.7C160,426.1,162.2,428.3,162.2,431.1z"/>
	</g>
	<g>
		<g>
			<linearGradient id="SVGID_15_" gradientUnits="userSpaceOnUse" x1="396.937" y1="53.5271" x2="540.0171" y2="53.5271">
				<stop  offset="0" style="stop-color:#3EECAC"/>
				<stop  offset="0.2322" style="stop-color:#37E4B4"/>
				<stop  offset="0.5885" style="stop-color:#25CFC9"/>
				<stop  offset="0.6807" style="stop-color:#1FC8D0"/>
				<stop  offset="1" style="stop-color:#08AEEA"/>
			</linearGradient>
			<path class="st27" d="M454.2,49.3c-0.9-1.3-2.1-1.9-3.8-1.9c-1.6,0-2.9,0.6-3.7,1.9c-0.9,1.2-1.3,3.2-1.3,5.8
				c0,2.3,0.4,4.1,1.3,5.4c0.9,1.2,2.1,1.9,3.8,1.9c1.6,0,2.8-0.6,3.7-1.8c0.9-1.2,1.4-3.2,1.4-5.9
				C455.6,52.3,455.1,50.5,454.2,49.3z M480.6,49.1c-0.8-1.1-2-1.7-3.5-1.7c-2.1,0-3.5,0.9-4.3,2.6v9.7c0.8,1.7,2.3,2.6,4.4,2.6
				c2.1,0,3.5-1,4.2-3.1c0.3-1,0.5-2.5,0.5-4.6C481.8,52.1,481.4,50.2,480.6,49.1z M480.6,49.1c-0.8-1.1-2-1.7-3.5-1.7
				c-2.1,0-3.5,0.9-4.3,2.6v9.7c0.8,1.7,2.3,2.6,4.4,2.6c2.1,0,3.5-1,4.2-3.1c0.3-1,0.5-2.5,0.5-4.6
				C481.8,52.1,481.4,50.2,480.6,49.1z M454.2,49.3c-0.9-1.3-2.1-1.9-3.8-1.9c-1.6,0-2.9,0.6-3.7,1.9c-0.9,1.2-1.3,3.2-1.3,5.8
				c0,2.3,0.4,4.1,1.3,5.4c0.9,1.2,2.1,1.9,3.8,1.9c1.6,0,2.8-0.6,3.7-1.8c0.9-1.2,1.4-3.2,1.4-5.9
				C455.6,52.3,455.1,50.5,454.2,49.3z M510.8,24h-84.7c-16.1,0-29.2,13.2-29.2,29.2v0.7c0,16.1,13.1,29.2,29.2,29.2h84.7
				c16.1,0,29.2-13.2,29.2-29.2v-0.7C540,37.1,526.9,24,510.8,24z M434.7,68.5c0,2.7-0.7,4.8-2.2,6.3c-1.4,1.5-3.5,2.3-6.2,2.3
				c-1.1,0-2.2-0.1-3.3-0.4v-5.2c0.8,0.1,1.5,0.2,2.1,0.2c2,0,3-1.1,3-3.2v-26h6.6V68.5z M434,38.6c-0.7,0.6-1.6,1-2.7,1
				c-1.1,0-2-0.3-2.7-1c-0.7-0.6-1-1.5-1-2.5c0-1,0.3-1.8,1-2.4c0.7-0.6,1.6-1,2.7-1c1.1,0,2,0.3,2.7,1c0.7,0.6,1,1.5,1,2.4
				C435,37.2,434.7,38,434,38.6z M459,64.2c-2.1,2.3-4.9,3.4-8.5,3.4c-3.5,0-6.4-1.1-8.5-3.4c-2.1-2.3-3.2-5.4-3.2-9.3v-0.3
				c0-2.4,0.5-4.6,1.4-6.5c0.9-1.9,2.3-3.4,4.1-4.4c1.8-1,3.8-1.6,6.2-1.6c3.3,0,6,1,8.1,3c2.1,2,3.3,4.8,3.5,8.3l0.1,1.7
				C462.2,58.9,461.1,61.9,459,64.2z M488.4,55.1c0,3.9-0.8,7-2.5,9.2c-1.7,2.2-4,3.3-7.1,3.3c-2.7,0-4.8-1-6.4-3.1l-0.3,2.6h-5.9
				V32.2h6.6v12.5c1.5-1.8,3.5-2.7,6-2.7c3,0,5.4,1.1,7.1,3.3c1.7,2.2,2.6,5.3,2.6,9.3V55.1z M509.2,65.5c-1.9,1.4-4.4,2.1-7.4,2.1
				c-2.1,0-3.9-0.4-5.5-1.1c-1.6-0.7-2.9-1.7-3.8-3c-0.9-1.3-1.4-2.7-1.4-4.2h6.2c0.1,1.2,0.5,2.1,1.3,2.7c0.8,0.6,1.9,0.9,3.2,0.9
				c1.3,0,2.2-0.2,2.9-0.7c0.6-0.5,1-1.1,1-1.9c0-0.8-0.4-1.4-1.2-1.9c-0.8-0.5-2.1-0.9-3.8-1.2c-5.9-1.2-8.8-3.7-8.8-7.5
				c0-2.2,0.9-4,2.7-5.5c1.8-1.5,4.2-2.2,7.1-2.2c3.1,0,5.6,0.7,7.5,2.2c1.9,1.5,2.8,3.4,2.8,5.7h-6.6c0-0.9-0.3-1.7-0.9-2.3
				c-0.6-0.6-1.6-0.9-2.8-0.9c-1.1,0-2,0.2-2.6,0.8s-0.9,1.1-0.9,1.9c0,0.7,0.3,1.3,1,1.8s1.9,0.8,3.5,1.2c1.6,0.3,3,0.7,4.1,1.1
				c3.5,1.3,5.2,3.5,5.2,6.6C512.1,62.3,511.2,64.1,509.2,65.5z M477.1,47.4c-2.1,0-3.5,0.9-4.3,2.6v9.7c0.8,1.7,2.3,2.6,4.4,2.6
				c2.1,0,3.5-1,4.2-3.1c0.3-1,0.5-2.5,0.5-4.6c0-2.5-0.4-4.3-1.2-5.5C479.8,48,478.7,47.4,477.1,47.4z M450.5,47.4
				c-1.6,0-2.9,0.6-3.7,1.9c-0.9,1.2-1.3,3.2-1.3,5.8c0,2.3,0.4,4.1,1.3,5.4c0.9,1.2,2.1,1.9,3.8,1.9c1.6,0,2.8-0.6,3.7-1.8
				c0.9-1.2,1.4-3.2,1.4-5.9c0-2.3-0.4-4.1-1.4-5.3C453.4,48,452.1,47.4,450.5,47.4z M454.2,49.3c-0.9-1.3-2.1-1.9-3.8-1.9
				c-1.6,0-2.9,0.6-3.7,1.9c-0.9,1.2-1.3,3.2-1.3,5.8c0,2.3,0.4,4.1,1.3,5.4c0.9,1.2,2.1,1.9,3.8,1.9c1.6,0,2.8-0.6,3.7-1.8
				c0.9-1.2,1.4-3.2,1.4-5.9C455.6,52.3,455.1,50.5,454.2,49.3z M454.2,49.3c-0.9-1.3-2.1-1.9-3.8-1.9c-1.6,0-2.9,0.6-3.7,1.9
				c-0.9,1.2-1.3,3.2-1.3,5.8c0,2.3,0.4,4.1,1.3,5.4c0.9,1.2,2.1,1.9,3.8,1.9c1.6,0,2.8-0.6,3.7-1.8c0.9-1.2,1.4-3.2,1.4-5.9
				C455.6,52.3,455.1,50.5,454.2,49.3z"/>
		</g>
		<g>
			<g>
				<path class="st7" d="M158.4,69.3c-1.8,1.6-4.1,2.4-7,2.4c-3.7,0-6.5-1.3-8.3-3.9c-1.8-2.6-2.7-6.9-2.7-12.9v-1.6
					c0-5.9,0.9-10.2,2.8-12.9c1.9-2.6,4.6-4,8.2-4c2.9,0,5.3,0.9,7.1,2.8c1.8,1.9,2.7,4.4,2.8,7.4h14.6c-0.1-6.9-2.3-12.4-6.7-16.6
					c-4.4-4.1-10.2-6.2-17.5-6.2c-8.3,0-14.9,2.7-19.6,8c-3.3,3.7-5.5,8.2-6.5,13.6h2.8c5,0,9,4,9,9c0,2.5-1,4.7-2.6,6.4
					c-1.6,1.6-3.9,2.6-6.4,2.6h-2.6c1.1,5.1,3.2,9.4,6.3,12.8c4.8,5.3,11.4,7.9,19.7,7.9c4.5,0,8.5-0.9,12.2-2.7
					c3.7-1.8,6.6-4.4,8.7-7.6c2.1-3.3,3.2-6.9,3.2-10.9h-14.6C161.1,65.6,160.2,67.7,158.4,69.3z M131.8,57.9
					c0.9-0.9,1.5-2.2,1.5-3.5c0-2.8-2.2-5-5-5h-3.4c-0.1,1.3-0.2,2.5-0.2,3.9v1c0,1.8,0.1,3.5,0.3,5.1h3.3
					C129.6,59.4,130.9,58.8,131.8,57.9z"/>
				<path class="st7" d="M215.4,23.8c-6.2,0-11.4,2.5-15.6,7.4V0.4h-15.6v82.7h15.6V41.6c2-3.5,5.4-5.3,9.9-5.3
					c3.3,0,5.7,0.8,7.2,2.4c1.4,1.6,2.1,4.1,2.1,7.4v37h15.6V45.8C234.4,31.1,228,23.8,215.4,23.8z"/>
				<path class="st7" d="M293.5,69.6V44.4c0-6.5-2.1-11.6-6.3-15.2c-4.2-3.6-9.9-5.4-17.1-5.4c-4.7,0-9,0.8-12.8,2.4
					c-3.8,1.6-6.8,3.9-8.8,6.8c-2.1,2.9-3.1,6-3.1,9.4h15.6c0-2.2,0.8-3.9,2.2-5.2c1.5-1.3,3.5-1.9,6.2-1.9c3,0,5.2,0.8,6.5,2.4
					c1.4,1.6,2.1,3.8,2.1,6.5v3.3h-7.2c-8.6,0-15.3,1.7-19.8,5c-4.6,3.3-6.9,8-6.9,14.2c0,5,1.9,9.2,5.6,12.5c3.8,3.3,8.5,5,14.2,5
					c6,0,10.9-2.1,14.7-6.3c0.3,2.1,0.9,3.8,1.6,5.2h15.7v-0.9C294.3,79.4,293.5,75.2,293.5,69.6z M277.9,66.6
					c-0.9,1.7-2.4,3.1-4.3,4.1s-4.1,1.5-6.4,1.5c-2.4,0-4.2-0.6-5.6-1.9c-1.4-1.3-2-2.9-2-4.8l0.1-0.9c0.5-5.4,4.6-8.1,12.4-8.1h5.8
					V66.6z"/>
				<path class="st7" d="M320.4,4c-1.6-1.5-3.7-2.3-6.4-2.3c-2.7,0-4.8,0.7-6.4,2.3s-2.3,3.4-2.3,5.8c0,2.4,0.8,4.3,2.4,5.8
					c1.6,1.5,3.7,2.3,6.3,2.3s4.7-0.8,6.3-2.3c1.6-1.5,2.4-3.5,2.4-5.8C322.8,7.4,322,5.5,320.4,4z M306.3,24.9v58.3h15.6V24.9
					H306.3z"/>
				<path class="st7" d="M380,29.2c-3-3.6-7.6-5.4-13.8-5.4c-7,0-12.6,2.6-16.7,7.8l-0.5-6.7h-14.6v58.3h15.6V41.9
					c2.2-3.7,5.5-5.6,9.8-5.6c3.3,0,5.7,0.7,7.2,2.2c1.4,1.5,2.2,3.9,2.2,7.2v37.3h15.6V45.5C384.6,38.3,383,32.8,380,29.2z"/>
			</g>
			<g>
				<g>
					<g>
						<path class="st5" d="M55.6,54c0,8.9-2.5,16.1-7.5,21.5c-5,5.4-11.7,8.1-20.1,8.1s-15.1-2.7-20.1-8.1c-5-5.4-7.5-12.7-7.5-22
							v-0.7c0-5.8,1.1-10.9,3.3-15.5c2.2-4.5,5.4-8,9.6-10.5c4.2-2.5,9-3.7,14.6-3.7c7.9,0,14.3,2.4,19.3,7.2
							c5,4.8,7.7,11.3,8.3,19.6L55.6,54z"/>
					</g>
					<g>
						<path class="st5" d="M55.6,54c0,8.9-2.5,16.1-7.5,21.5c-5,5.4-11.7,8.1-20.1,8.1s-15.1-2.7-20.1-8.1c-5-5.4-7.5-12.7-7.5-22
							v-0.7c0-5.8,1.1-10.9,3.3-15.5c2.2-4.5,5.4-8,9.6-10.5c4.2-2.5,9-3.7,14.6-3.7c7.9,0,14.3,2.4,19.3,7.2
							c5,4.8,7.7,11.3,8.3,19.6L55.6,54z"/>
						<path class="st5" d="M111.6,45.4h3.5v-0.5c-0.1-7.2-1.6-12.6-4.6-16.3c-3-3.6-7.6-5.4-13.8-5.4c-7,0-12.6,2.6-16.7,7.8
							l-0.5-6.7H64.8v58.3h15.6V41.3c2.2-3.7,5.5-5.6,9.9-5.6c3.3,0,5.7,0.8,7.2,2.2c1.4,1.5,2.1,3.9,2.1,7.2v37.3h15.6V63.4h-3.5
							c-5,0-9-4-9-9c0-2.5,1-4.7,2.6-6.4C106.9,46.4,109.2,45.4,111.6,45.4z M111.5,49.4c-1.4,0-2.6,0.6-3.5,1.5
							c-0.9,0.9-1.5,2.2-1.5,3.5c0,2.8,2.2,5,5,5h3.6v-10H111.5z"/>
					</g>
				</g>
				<g>
					<path class="st5" d="M111.5,57.4c-1.7,0-3-1.4-3-3c0-0.8,0.3-1.5,0.9-2.1c0.6-0.6,1.3-0.9,2.1-0.9h16.7c1.7,0,3,1.3,3,3
						c0,0.8-0.3,1.6-0.9,2.1c-0.6,0.6-1.3,0.9-2.1,0.9H111.5z"/>
					<path class="st7" d="M128.2,53.4c0.5,0,1,0.5,1,1c0,0.3-0.2,0.6-0.3,0.7c-0.1,0.1-0.4,0.3-0.7,0.3h-16.7c-0.5,0-1-0.5-1-1
						c0-0.3,0.1-0.5,0.3-0.7c0.2-0.2,0.4-0.3,0.7-0.3H128.2 M128.2,49.4h-16.7c-1.4,0-2.6,0.6-3.5,1.5c-0.9,0.9-1.5,2.2-1.5,3.5
						c0,2.8,2.2,5,5,5h16.7c1.4,0,2.6-0.6,3.5-1.5c0.9-0.9,1.5-2.2,1.5-3.5C133.2,51.6,131,49.4,128.2,49.4L128.2,49.4z"/>
				</g>
			</g>
		</g>
	</g>
	<g>
		<path class="st5" d="M133.2,54.4c0,1.4-0.6,2.6-1.5,3.5c-0.9,0.9-2.2,1.5-3.5,1.5h-16.7c-2.8,0-5-2.3-5-5c0-1.4,0.6-2.6,1.5-3.5
			c0.9-0.9,2.2-1.5,3.5-1.5h16.7C131,49.4,133.2,51.6,133.2,54.4z"/>
	</g>
</g>
</svg>
