<?xml version="1.0" encoding="utf-8"?>
<!-- Generator: Adobe Illustrator 21.1.0, SVG Export Plug-In . SVG Version: 6.00 Build 0)  -->
<svg version="1.1" xmlns="http://www.w3.org/2000/svg" xmlns:xlink="http://www.w3.org/1999/xlink" x="0px" y="0px"
	 viewBox="0 0 835.8 143.1" style="enable-background:new 0 0 835.8 143.1;" xml:space="preserve">
<style type="text/css">
	.st0{fill:#16132E;}
	.st1{fill:#FFA12A;}
	.st2{fill:#C47A33;}
	.st3{fill:#E34C54;}
	.st4{fill:#EB42D1;}
	.st5{fill:#3EECAC;}
	.st6{fill:#08AEEA;}
	.st7{display:none;fill:#74E843;}
	.st8{fill:url(#SVGID_1_);}
	.st9{fill:#FFFFFF;}
	.st10{fill:url(#SVGID_2_);}
	.st11{fill:#1D1D1B;}
	.st12{fill:url(#SVGID_3_);}
	.st13{fill:url(#SVGID_4_);}
	.st14{fill:url(#SVGID_5_);}
	.st15{fill:url(#SVGID_6_);}
	.st16{fill:url(#SVGID_7_);}
	.st17{fill:url(#SVGID_8_);}
	.st18{fill:url(#SVGID_9_);}
	.st19{fill:url(#SVGID_10_);}
	.st20{fill:url(#SVGID_11_);}
	.st21{fill:#EDEBFF;}
	.st22{fill:url(#SVGID_12_);}
	.st23{fill:url(#SVGID_13_);}
	.st24{fill:url(#SVGID_14_);}
	.st25{fill:#524BDB;}
	.st26{fill:url(#SVGID_15_);}
	.st27{fill:none;stroke:#C4C4C4;stroke-miterlimit:10;stroke-dasharray:12;}
	.st28{fill:#191919;}
</style>
<g id="Layer_2">
</g>
<g id="Layer_1">
</g>
<g id="Layer_3">
</g>
<g id="Layer_4">
	<g>
		<g>
			<path class="st21" d="M696.6,79.8c-1.4-1.9-3.3-2.9-5.7-2.9c-2.4,0-4.3,1-5.7,2.9c-1.3,1.9-2,4.8-2,8.8c0,3.6,0.7,6.3,2,8.1
				c1.3,1.9,3.2,2.8,5.7,2.8c2.4,0,4.3-0.9,5.7-2.8c1.4-1.9,2-4.8,2-8.9C698.6,84.4,697.9,81.7,696.6,79.8z M736.7,79.6
				c-1.2-1.7-3-2.6-5.3-2.6c-3.2,0-5.4,1.3-6.6,3.9v14.7c1.2,2.6,3.4,4,6.6,4c3.2,0,5.3-1.6,6.4-4.8c0.5-1.5,0.7-3.8,0.7-6.9
				C738.5,84.1,737.9,81.4,736.7,79.6z M736.7,79.6c-1.2-1.7-3-2.6-5.3-2.6c-3.2,0-5.4,1.3-6.6,3.9v14.7c1.2,2.6,3.4,4,6.6,4
				c3.2,0,5.3-1.6,6.4-4.8c0.5-1.5,0.7-3.8,0.7-6.9C738.5,84.1,737.9,81.4,736.7,79.6z M696.6,79.8c-1.4-1.9-3.3-2.9-5.7-2.9
				c-2.4,0-4.3,1-5.7,2.9c-1.3,1.9-2,4.8-2,8.8c0,3.6,0.7,6.3,2,8.1c1.3,1.9,3.2,2.8,5.7,2.8c2.4,0,4.3-0.9,5.7-2.8
				c1.4-1.9,2-4.8,2-8.9C698.6,84.4,697.9,81.7,696.6,79.8z M782.5,41.3H653.9c-24.4,0-44.4,20-44.4,44.4v1.1
				c0,24.4,20,44.4,44.4,44.4h128.6c24.4,0,44.4-20,44.4-44.4v-1.1C826.9,61.3,806.9,41.3,782.5,41.3z M666.9,109
				c0,4.1-1.1,7.3-3.3,9.6c-2.2,2.3-5.3,3.4-9.5,3.4c-1.7,0-3.4-0.2-4.9-0.6v-7.9c1.2,0.2,2.2,0.3,3.1,0.3c3,0,4.5-1.6,4.5-4.8V69.6
				h10V109z M665.8,63.6c-1,1-2.4,1.4-4.1,1.4c-1.7,0-3-0.5-4.1-1.4c-1-1-1.5-2.2-1.5-3.7c0-1.5,0.5-2.7,1.5-3.7
				c1-1,2.4-1.5,4.1-1.5c1.7,0,3.1,0.5,4.1,1.5c1,1,1.5,2.2,1.5,3.7C667.3,61.4,666.8,62.7,665.8,63.6z M703.8,102.4
				c-3.2,3.5-7.5,5.2-12.9,5.2c-5.4,0-9.7-1.7-12.9-5.2c-3.2-3.4-4.8-8.1-4.8-14.1v-0.5c0-3.7,0.7-7,2.1-9.9
				c1.4-2.9,3.5-5.2,6.2-6.7c2.7-1.6,5.8-2.4,9.3-2.4c5,0,9.2,1.5,12.4,4.6c3.2,3.1,5,7.3,5.3,12.6l0.1,2.6
				C708.6,94.4,707,99,703.8,102.4z M748.5,88.6c0,6-1.3,10.7-3.8,14c-2.6,3.3-6.1,5-10.7,5c-4,0-7.3-1.5-9.7-4.7l-0.5,4h-9V53.9h10
				v19c2.3-2.7,5.3-4,9.1-4c4.6,0,8.1,1.7,10.7,5c2.6,3.4,3.9,8.1,3.9,14.1V88.6z M780.2,104.5c-2.9,2.1-6.7,3.2-11.3,3.2
				c-3.1,0-5.9-0.5-8.3-1.7c-2.4-1.1-4.3-2.6-5.7-4.6c-1.4-1.9-2.1-4.1-2.1-6.3h9.5c0.1,1.8,0.8,3.1,2,4.1c1.2,0.9,2.9,1.4,4.9,1.4
				c1.9,0,3.4-0.4,4.3-1.1c1-0.7,1.5-1.7,1.5-2.9c0-1.2-0.6-2.2-1.8-2.9c-1.2-0.7-3.1-1.3-5.8-1.9c-8.9-1.9-13.3-5.6-13.3-11.3
				c0-3.3,1.4-6.1,4.1-8.3c2.8-2.2,6.4-3.3,10.8-3.3c4.7,0,8.5,1.1,11.4,3.4c2.8,2.2,4.3,5.1,4.3,8.7h-10c0-1.4-0.5-2.6-1.4-3.5
				c-0.9-0.9-2.4-1.4-4.3-1.4c-1.7,0-3,0.4-3.9,1.1c-0.9,0.8-1.4,1.7-1.4,2.9c0,1.1,0.5,2,1.6,2.7c1,0.7,2.8,1.3,5.3,1.8
				c2.5,0.5,4.6,1,6.3,1.7c5.3,1.9,7.9,5.3,7.9,10.1C784.6,99.6,783.1,102.4,780.2,104.5z M731.3,77c-3.2,0-5.4,1.3-6.6,3.9v14.7
				c1.2,2.6,3.4,4,6.6,4c3.2,0,5.3-1.6,6.4-4.8c0.5-1.5,0.7-3.8,0.7-6.9c0-3.8-0.6-6.5-1.8-8.3C735.5,77.9,733.7,77,731.3,77z
				 M690.9,76.9c-2.4,0-4.3,1-5.7,2.9c-1.3,1.9-2,4.8-2,8.8c0,3.6,0.7,6.3,2,8.1c1.3,1.9,3.2,2.8,5.7,2.8c2.4,0,4.3-0.9,5.7-2.8
				c1.4-1.9,2-4.8,2-8.9c0-3.5-0.7-6.2-2-8.1C695.2,77.9,693.3,76.9,690.9,76.9z M696.6,79.8c-1.4-1.9-3.3-2.9-5.7-2.9
				c-2.4,0-4.3,1-5.7,2.9c-1.3,1.9-2,4.8-2,8.8c0,3.6,0.7,6.3,2,8.1c1.3,1.9,3.2,2.8,5.7,2.8c2.4,0,4.3-0.9,5.7-2.8
				c1.4-1.9,2-4.8,2-8.9C698.6,84.4,697.9,81.7,696.6,79.8z M696.6,79.8c-1.4-1.9-3.3-2.9-5.7-2.9c-2.4,0-4.3,1-5.7,2.9
				c-1.3,1.9-2,4.8-2,8.8c0,3.6,0.7,6.3,2,8.1c1.3,1.9,3.2,2.8,5.7,2.8c2.4,0,4.3-0.9,5.7-2.8c1.4-1.9,2-4.8,2-8.9
				C698.6,84.4,697.9,81.7,696.6,79.8z"/>
		</g>
		<g>
			<path class="st21" d="M246.6,110.7c-2.7,2.4-6.3,3.6-10.6,3.6c-5.7,0-9.9-2-12.7-6c-2.8-4-4.2-10.5-4.2-19.7v-2.5
				c0-9,1.4-15.5,4.2-19.5c2.8-4,7-6,12.5-6c4.5,0,8.1,1.4,10.8,4.3c2.7,2.9,4.1,6.6,4.3,11.2H273c-0.1-10.5-3.5-18.9-10.2-25.2
				c-6.7-6.3-15.6-9.5-26.6-9.5c-12.7,0-22.6,4.1-29.9,12.2c-5,5.6-8.3,12.5-9.8,20.7h4.3c7.5,0,13.7,6.2,13.7,13.7
				c0,3.8-1.5,7.2-4,9.7c-2.5,2.5-5.9,4-9.7,4h-4c1.7,7.8,4.9,14.3,9.6,19.5c7.3,8.1,17.3,12.1,29.9,12.1c6.8,0,12.9-1.4,18.5-4.1
				c5.6-2.8,10-6.6,13.2-11.6c3.2-5,4.8-10.5,4.9-16.5h-22.2C250.7,105.2,249.3,108.3,246.6,110.7z M206.2,93.5
				c1.4-1.4,2.2-3.3,2.2-5.4c0-4.2-3.4-7.6-7.6-7.6h-5.1c-0.2,1.9-0.2,3.9-0.2,5.9V88c0,2.7,0.1,5.3,0.4,7.7h5
				C202.9,95.8,204.8,94.9,206.2,93.5z"/>
			<path class="st21" d="M333.2,41.6c-9.5,0-17.4,3.8-23.6,11.3V6.1H286v125.7h23.6V68.7c3.1-5.3,8.1-8,15-8c5.1,0,8.7,1.2,10.9,3.6
				c2.2,2.4,3.3,6.2,3.3,11.3v56.2h23.6V75.1C362.2,52.8,352.4,41.6,333.2,41.6z"/>
			<path class="st21" d="M451.9,111.3V72.9c0-9.9-3.2-17.6-9.6-23.1c-6.4-5.5-15.1-8.2-26-8.2c-7.2,0-13.7,1.2-19.5,3.7
				c-5.8,2.5-10.3,5.9-13.4,10.3c-3.2,4.4-4.8,9.1-4.8,14.2h23.6c0-3.3,1.1-6,3.4-7.9c2.3-1.9,5.4-2.9,9.4-2.9c4.5,0,7.8,1.2,10,3.7
				c2.1,2.4,3.1,5.7,3.1,9.8v5.1h-10.9c-13.1,0-23.2,2.6-30.1,7.6c-7,5-10.4,12.2-10.4,21.6c0,7.6,2.9,14,8.6,19
				c5.7,5,12.9,7.5,21.6,7.5c9.2,0,16.6-3.2,22.3-9.6c0.5,3.2,1.3,5.8,2.4,7.9h23.9v-1.4C453.2,126.1,452,119.7,451.9,111.3z
				 M428.2,106.7c-1.4,2.6-3.6,4.7-6.5,6.3c-2.9,1.5-6.2,2.3-9.6,2.3c-3.6,0-6.4-0.9-8.5-2.9c-2.1-1.9-3.1-4.3-3.1-7.3l0.1-1.4
				c0.8-8.2,7.1-12.3,18.9-12.3h8.8V106.7z"/>
			<path class="st21" d="M492.9,11.6c-2.4-2.3-5.6-3.4-9.6-3.4c-4.1,0-7.3,1.1-9.7,3.4s-3.6,5.2-3.6,8.8c0,3.6,1.2,6.5,3.6,8.8
				c2.4,2.3,5.6,3.4,9.6,3.4c4,0,7.2-1.2,9.6-3.4c2.4-2.3,3.6-5.2,3.6-8.8C496.5,16.8,495.3,13.9,492.9,11.6z M471.3,43.3v88.5h23.7
				V43.3H471.3z"/>
			<path class="st21" d="M583.4,49.9c-4.6-5.5-11.6-8.3-21-8.3c-10.6,0-19.1,4-25.4,11.9l-0.7-10.2h-22.2v88.5h23.6V69.2
				c3.3-5.7,8.3-8.5,15-8.5c5.1,0,8.7,1.1,10.9,3.4c2.2,2.3,3.3,5.9,3.3,10.9v56.8h23.6V74.6C590.4,63.6,588,55.4,583.4,49.9z"/>
		</g>
		<g>
			<g>
				<g>
					<path class="st5" d="M90.4,87.5c0,13.6-3.8,24.5-11.4,32.7c-7.6,8.2-17.7,12.3-30.5,12.3s-22.9-4.1-30.6-12.3
						c-7.6-8.2-11.4-19.3-11.4-33.4v-1.1c0-8.8,1.7-16.6,5.1-23.5c3.4-6.9,8.3-12.2,14.6-16c6.4-3.8,13.7-5.6,22.1-5.6
						c11.9,0,21.7,3.6,29.3,11c7.6,7.3,11.8,17.2,12.6,29.8L90.4,87.5z"/>
				</g>
				<g>
					<path class="st21" d="M90.4,87.5c0,13.6-3.8,24.5-11.4,32.7c-7.6,8.2-17.7,12.3-30.5,12.3s-22.9-4.1-30.6-12.3
						c-7.6-8.2-11.4-19.3-11.4-33.4v-1.1c0-8.8,1.7-16.6,5.1-23.5c3.4-6.9,8.3-12.2,14.6-16c6.4-3.8,13.7-5.6,22.1-5.6
						c11.9,0,21.7,3.6,29.3,11c7.6,7.3,11.8,17.2,12.6,29.8L90.4,87.5z"/>
					<path class="st21" d="M175.6,74.5h5.3v-0.8c-0.1-11-2.5-19.2-7.1-24.7c-4.6-5.5-11.6-8.3-20.9-8.3c-10.6,0-19.1,4-25.4,11.9
						l-0.7-10.2h-22.2v88.5h23.6V68.3c3.3-5.7,8.3-8.5,15-8.5c5.1,0,8.7,1.1,10.9,3.4c2.2,2.3,3.3,5.9,3.3,11v56.7h23.7v-29h-5.3
						c-7.5,0-13.7-6.2-13.7-13.7c0-3.8,1.5-7.2,4-9.7C168.4,76,171.9,74.5,175.6,74.5z M175.4,80.5c-2.1,0-4,0.9-5.4,2.2
						c-1.4,1.4-2.2,3.3-2.2,5.4c0,4.2,3.4,7.6,7.6,7.6h5.4V80.5H175.4z"/>
				</g>
			</g>
			<path class="st21" d="M208.4,88.1c0,2.1-0.9,4-2.2,5.4c-1.4,1.4-3.3,2.2-5.4,2.2h-25.4c-4.2,0-7.6-3.4-7.6-7.6
				c0-2.1,0.9-4,2.2-5.4c1.4-1.4,3.3-2.2,5.4-2.2h25.4C205,80.5,208.4,84,208.4,88.1z"/>
		</g>
		<path class="st21" d="M208.4,88.1c0,2.1-0.9,4-2.2,5.4c-1.4,1.4-3.3,2.2-5.4,2.2h-25.4c-4.2,0-7.6-3.4-7.6-7.6
			c0-2.1,0.9-4,2.2-5.4c1.4-1.4,3.3-2.2,5.4-2.2h25.4C205,80.5,208.4,84,208.4,88.1z"/>
	</g>
</g>
<g id="Layer_6">
</g>
<g id="Layer_5">
</g>
</svg>
