<?xml version="1.0" encoding="utf-8"?>
<!-- Generator: Adobe Illustrator 21.1.0, SVG Export Plug-In . SVG Version: 6.00 Build 0)  -->
<svg version="1.1" xmlns="http://www.w3.org/2000/svg" xmlns:xlink="http://www.w3.org/1999/xlink" x="0px" y="0px"
	 viewBox="0 0 540.5 84.6" style="enable-background:new 0 0 540.5 84.6;" xml:space="preserve">
<style type="text/css">
	.st0{fill:#16132E;}
	.st1{fill:#FFA12A;}
	.st2{fill:#C47A33;}
	.st3{fill:#E34C54;}
	.st4{fill:#EB42D1;}
	.st5{fill:#3EECAC;}
	.st6{fill:#08AEEA;}
	.st7{fill:#FFFFFF;}
	.st8{display:none;fill:#74E843;}
	.st9{fill:url(#SVGID_1_);}
	.st10{fill:none;stroke:#FFA12A;stroke-width:3;stroke-miterlimit:10;}
	.st11{fill:url(#SVGID_2_);}
	.st12{fill:url(#SVGID_3_);}
	.st13{fill:none;stroke:#FFA12A;stroke-width:2;stroke-miterlimit:10;}
	.st14{fill:url(#SVGID_4_);}
	.st15{fill:#FFA12A;stroke:#FFA12A;stroke-miterlimit:10;}
	.st16{fill:url(#SVGID_5_);}
	.st17{fill:url(#SVGID_6_);}
	.st18{fill:url(#SVGID_7_);}
	.st19{fill:url(#SVGID_8_);}
	.st20{fill:url(#SVGID_9_);}
	.st21{fill:#1D1D1B;}
	.st22{fill:url(#SVGID_10_);}
	.st23{fill:url(#SVGID_11_);}
	.st24{fill:url(#SVGID_12_);}
	.st25{fill:url(#SVGID_13_);}
	.st26{fill:url(#SVGID_14_);}
</style>
<g id="Layer_2">
</g>
<g id="Layer_1">
	<g>
		<g>
			<linearGradient id="SVGID_1_" gradientUnits="userSpaceOnUse" x1="396.9362" y1="53.5267" x2="540.0146" y2="53.5267">
				<stop  offset="0" style="stop-color:#3EECAC"/>
				<stop  offset="0.2322" style="stop-color:#37E4B4"/>
				<stop  offset="0.5885" style="stop-color:#25CFC9"/>
				<stop  offset="0.6807" style="stop-color:#1FC8D0"/>
				<stop  offset="1" style="stop-color:#08AEEA"/>
			</linearGradient>
			<path class="st9" d="M510.8,83.1h-84.7c-16.1,0-29.2-13.1-29.2-29.2v-0.7c0-16.1,13.1-29.2,29.2-29.2h84.7
				c16.1,0,29.2,13.1,29.2,29.2v0.7C540,70,526.9,83.1,510.8,83.1z"/>
			<g>
				<path class="st7" d="M428.1,42.5v26c0,2.1-1,3.2-3,3.2c-0.6,0-1.3-0.1-2.1-0.2v5.2c1,0.3,2.1,0.4,3.3,0.4c2.7,0,4.8-0.8,6.2-2.3
					c1.4-1.5,2.2-3.6,2.2-6.3V42.5H428.1z M434,33.7c-0.7-0.6-1.6-1-2.7-1c-1.1,0-2,0.3-2.7,1c-0.7,0.6-1,1.5-1,2.4
					c0,1,0.3,1.8,1,2.5c0.7,0.6,1.6,1,2.7,1c1.1,0,2-0.3,2.7-1c0.7-0.6,1-1.5,1-2.5C435,35.2,434.7,34.4,434,33.7z"/>
				<path class="st7" d="M462.1,53.4c-0.2-3.5-1.4-6.2-3.5-8.3c-2.1-2-4.8-3-8.1-3c-2.3,0-4.4,0.5-6.2,1.6c-1.8,1-3.1,2.5-4.1,4.4
					c-0.9,1.9-1.4,4.1-1.4,6.5v0.3c0,3.9,1.1,7,3.2,9.3c2.1,2.3,5,3.4,8.5,3.4c3.5,0,6.4-1.2,8.5-3.4c2.1-2.3,3.2-5.3,3.2-9.1
					L462.1,53.4z M454.2,60.5c-0.9,1.2-2.1,1.8-3.7,1.8c-1.6,0-2.9-0.6-3.8-1.9c-0.9-1.2-1.3-3-1.3-5.4c0-2.6,0.4-4.6,1.3-5.8
					c0.9-1.2,2.1-1.9,3.7-1.9c1.6,0,2.9,0.6,3.8,1.9c0.9,1.3,1.4,3,1.4,5.3C455.6,57.3,455.1,59.2,454.2,60.5z"/>
				<path class="st7" d="M485.8,45.4c-1.7-2.2-4-3.3-7.1-3.3c-2.5,0-4.5,0.9-6,2.7V32.2h-6.6v34.9h5.9l0.3-2.6
					c1.6,2,3.7,3.1,6.4,3.1c3,0,5.4-1.1,7.1-3.3c1.7-2.2,2.5-5.3,2.5-9.2v-0.4C488.4,50.7,487.5,47.6,485.8,45.4z M481.3,59.1
					c-0.7,2.1-2.1,3.1-4.2,3.1c-2.1,0-3.6-0.9-4.4-2.6V50c0.8-1.7,2.2-2.6,4.3-2.6c1.6,0,2.7,0.6,3.5,1.7c0.8,1.1,1.2,3,1.2,5.5
					C481.8,56.6,481.6,58.1,481.3,59.1z"/>
				<path class="st7" d="M506.9,53.4c-1.1-0.4-2.5-0.8-4.1-1.1c-1.6-0.3-2.8-0.7-3.5-1.2s-1-1-1-1.8c0-0.8,0.3-1.4,0.9-1.9
					s1.5-0.8,2.6-0.8c1.3,0,2.2,0.3,2.8,0.9c0.6,0.6,0.9,1.4,0.9,2.3h6.6c0-2.4-0.9-4.3-2.8-5.7c-1.9-1.5-4.4-2.2-7.5-2.2
					c-2.9,0-5.3,0.7-7.1,2.2c-1.8,1.5-2.7,3.3-2.7,5.5c0,3.7,2.9,6.2,8.8,7.5c1.8,0.4,3,0.8,3.8,1.2c0.8,0.5,1.2,1.1,1.2,1.9
					c0,0.8-0.3,1.4-1,1.9c-0.6,0.5-1.6,0.7-2.9,0.7c-1.4,0-2.4-0.3-3.2-0.9c-0.8-0.6-1.2-1.5-1.3-2.7h-6.2c0,1.5,0.5,2.9,1.4,4.2
					c0.9,1.3,2.2,2.3,3.8,3c1.6,0.7,3.4,1.1,5.5,1.1c3,0,5.5-0.7,7.4-2.1c1.9-1.4,2.9-3.2,2.9-5.4C512.1,56.9,510.4,54.7,506.9,53.4
					z"/>
			</g>
		</g>
		<g>
			<g>
				<path class="st0" d="M158.4,69.3c-1.8,1.6-4.1,2.4-7,2.4c-3.7,0-6.5-1.3-8.3-3.9c-1.8-2.6-2.7-6.9-2.7-12.9v-1.6
					c0-5.9,0.9-10.2,2.8-12.9c1.9-2.6,4.6-4,8.2-4c2.9,0,5.3,0.9,7.1,2.8c1.8,1.9,2.7,4.4,2.8,7.4h14.6c-0.1-6.9-2.3-12.4-6.7-16.6
					c-4.4-4.1-10.2-6.2-17.5-6.2c-8.3,0-14.9,2.7-19.6,8c-3.3,3.7-5.5,8.2-6.5,13.6h2.8c5,0,9,4,9,9c0,2.5-1,4.7-2.6,6.4
					c-1.6,1.6-3.9,2.6-6.4,2.6h-2.6c1.1,5.1,3.2,9.4,6.3,12.8c4.8,5.3,11.4,7.9,19.7,7.9c4.5,0,8.5-0.9,12.2-2.7
					c3.7-1.8,6.6-4.4,8.7-7.6c2.1-3.3,3.2-6.9,3.2-10.9h-14.6C161.1,65.6,160.2,67.7,158.4,69.3z M131.8,57.9
					c0.9-0.9,1.5-2.2,1.5-3.5c0-2.8-2.2-5-5-5h-3.4c-0.1,1.3-0.2,2.5-0.2,3.9v1c0,1.8,0.1,3.5,0.3,5.1h3.3
					C129.6,59.4,130.9,58.8,131.8,57.9z"/>
				<path class="st0" d="M215.4,23.8c-6.2,0-11.4,2.5-15.6,7.4V0.4h-15.6v82.7h15.6V41.6c2-3.5,5.4-5.3,9.9-5.3
					c3.3,0,5.7,0.8,7.2,2.4c1.4,1.6,2.1,4.1,2.1,7.4v37h15.6V45.8C234.4,31.1,228,23.8,215.4,23.8z"/>
				<path class="st0" d="M293.5,69.6V44.4c0-6.5-2.1-11.6-6.3-15.2c-4.2-3.6-9.9-5.4-17.1-5.4c-4.7,0-9,0.8-12.8,2.4
					c-3.8,1.6-6.8,3.9-8.8,6.8c-2.1,2.9-3.1,6-3.1,9.4h15.6c0-2.2,0.8-3.9,2.2-5.2c1.5-1.3,3.5-1.9,6.2-1.9c3,0,5.2,0.8,6.5,2.4
					c1.4,1.6,2.1,3.8,2.1,6.5v3.3h-7.2c-8.6,0-15.3,1.7-19.8,5c-4.6,3.3-6.9,8-6.9,14.2c0,5,1.9,9.2,5.6,12.5c3.8,3.3,8.5,5,14.2,5
					c6,0,10.9-2.1,14.7-6.3c0.3,2.1,0.9,3.8,1.6,5.2h15.7v-0.9C294.3,79.4,293.5,75.2,293.5,69.6z M277.9,66.6
					c-0.9,1.7-2.4,3.1-4.3,4.1s-4.1,1.5-6.4,1.5c-2.4,0-4.2-0.6-5.6-1.9c-1.4-1.3-2-2.9-2-4.8l0.1-0.9c0.5-5.4,4.6-8.1,12.4-8.1h5.8
					V66.6z"/>
				<path class="st0" d="M320.4,4c-1.6-1.5-3.7-2.3-6.4-2.3c-2.7,0-4.8,0.7-6.4,2.3s-2.3,3.4-2.3,5.8c0,2.4,0.8,4.3,2.4,5.8
					c1.6,1.5,3.7,2.3,6.3,2.3s4.7-0.8,6.3-2.3c1.6-1.5,2.4-3.5,2.4-5.8C322.8,7.4,322,5.5,320.4,4z M306.3,24.9v58.3h15.6V24.9
					H306.3z"/>
				<path class="st0" d="M380,29.2c-3-3.6-7.6-5.4-13.8-5.4c-7,0-12.6,2.6-16.7,7.8l-0.5-6.7h-14.6v58.3h15.6V41.9
					c2.2-3.7,5.5-5.6,9.8-5.6c3.3,0,5.7,0.7,7.2,2.2c1.4,1.5,2.2,3.9,2.2,7.2v37.3h15.6V45.5C384.6,38.3,383,32.8,380,29.2z"/>
			</g>
			<g>
				<g>
					<g>
						<path class="st5" d="M55.6,54c0,8.9-2.5,16.1-7.5,21.5c-5,5.4-11.7,8.1-20.1,8.1s-15.1-2.7-20.1-8.1c-5-5.4-7.5-12.7-7.5-22
							v-0.7c0-5.8,1.1-10.9,3.3-15.5c2.2-4.5,5.4-8,9.6-10.5c4.2-2.5,9-3.7,14.6-3.7c7.9,0,14.3,2.4,19.3,7.2
							c5,4.8,7.7,11.3,8.3,19.6L55.6,54z"/>
					</g>
					<g>
						<path class="st5" d="M55.6,54c0,8.9-2.5,16.1-7.5,21.5c-5,5.4-11.7,8.1-20.1,8.1s-15.1-2.7-20.1-8.1c-5-5.4-7.5-12.7-7.5-22
							v-0.7c0-5.8,1.1-10.9,3.3-15.5c2.2-4.5,5.4-8,9.6-10.5c4.2-2.5,9-3.7,14.6-3.7c7.9,0,14.3,2.4,19.3,7.2
							c5,4.8,7.7,11.3,8.3,19.6L55.6,54z"/>
						<path class="st5" d="M111.6,45.4h3.5v-0.5c-0.1-7.2-1.6-12.6-4.6-16.3c-3-3.6-7.6-5.4-13.8-5.4c-7,0-12.6,2.6-16.7,7.8
							l-0.5-6.7H64.8v58.3h15.6V41.3c2.2-3.7,5.5-5.6,9.9-5.6c3.3,0,5.7,0.8,7.2,2.2c1.4,1.5,2.1,3.9,2.1,7.2v37.3h15.6V63.4h-3.5
							c-5,0-9-4-9-9c0-2.5,1-4.7,2.6-6.4C106.9,46.4,109.2,45.4,111.6,45.4z M111.5,49.4c-1.4,0-2.6,0.6-3.5,1.5
							c-0.9,0.9-1.5,2.2-1.5,3.5c0,2.8,2.2,5,5,5h3.6v-10H111.5z"/>
					</g>
				</g>
				<g>
					<path class="st5" d="M111.5,57.4c-1.7,0-3-1.4-3-3c0-0.8,0.3-1.5,0.9-2.1c0.6-0.6,1.3-0.9,2.1-0.9h16.7c1.7,0,3,1.3,3,3
						c0,0.8-0.3,1.6-0.9,2.1c-0.6,0.6-1.3,0.9-2.1,0.9H111.5z"/>
					<path class="st7" d="M128.2,53.4c0.5,0,1,0.5,1,1c0,0.3-0.2,0.6-0.3,0.7c-0.1,0.1-0.4,0.3-0.7,0.3h-16.7c-0.5,0-1-0.5-1-1
						c0-0.3,0.1-0.5,0.3-0.7c0.2-0.2,0.4-0.3,0.7-0.3H128.2 M128.2,49.4h-16.7c-1.4,0-2.6,0.6-3.5,1.5c-0.9,0.9-1.5,2.2-1.5,3.5
						c0,2.8,2.2,5,5,5h16.7c1.4,0,2.6-0.6,3.5-1.5c0.9-0.9,1.5-2.2,1.5-3.5C133.2,51.6,131,49.4,128.2,49.4L128.2,49.4z"/>
				</g>
			</g>
		</g>
	</g>
	<g>
		<path class="st5" d="M133.2,54.4c0,1.4-0.6,2.6-1.5,3.5c-0.9,0.9-2.2,1.5-3.5,1.5h-16.7c-2.8,0-5-2.3-5-5c0-1.4,0.6-2.6,1.5-3.5
			c0.9-0.9,2.2-1.5,3.5-1.5h16.7C131,49.4,133.2,51.6,133.2,54.4z"/>
	</g>
</g>
</svg>
